<?xml version="1.0" encoding="utf-8"?>
<!-- Generator: Adobe Illustrator 27.5.0, SVG Export Plug-In . SVG Version: 6.00 Build 0)  -->
<svg version="1.1" id="katman_1" xmlns="http://www.w3.org/2000/svg" xmlns:xlink="http://www.w3.org/1999/xlink" x="0px" y="0px"
	 viewBox="0 0 841.89 595.28" style="enable-background:new 0 0 841.89 595.28;" xml:space="preserve" fill="#ffffff">
<path id=":R3a8mpja:" d="M271.58,395c-7.51,0-13.59-6.09-13.59-13.59s6.09-13.59,13.59-13.59s13.59,6.09,13.59,13.59
	S279.09,395,271.58,395 M282.07,191.63c-10.24-4.24-22.03-1.9-29.86,5.94l-62.85,62.85l-62.85-62.85
	c-7.84-7.84-19.62-10.18-29.86-5.94c-10.24,4.24-16.92,14.23-16.92,25.32v164.46c0,15.13,12.27,27.4,27.4,27.4s27.4-12.27,27.4-27.4
	v-98.3l35.45,35.45c10.7,10.7,28.05,10.7,38.75,0l35.45-35.45v98.3c0,15.13,12.27,27.4,27.4,27.4c15.13,0,27.4-12.27,27.4-27.4
	V216.95C298.99,205.87,292.31,195.88,282.07,191.63"/>
<path id=":R3a8mpjaH1:" d="M507.09,229.47c-7.51,0-13.59-6.09-13.59-13.59s6.09-13.59,13.59-13.59c7.51,0,13.59,6.09,13.59,13.59
	S514.6,229.47,507.09,229.47 M507.09,188.47c-15.13,0-27.4,12.27-27.4,27.4v82.23c0,30.23-24.6,54.83-54.83,54.83
	s-54.83-24.6-54.83-54.83v-82.23c0-15.13-12.27-27.4-27.4-27.4c-15.13,0-27.4,12.27-27.4,27.4v82.23
	c0,60.45,49.18,109.63,109.63,109.63c60.45,0,109.63-49.18,109.63-109.63v-82.23C534.49,200.74,522.23,188.47,507.09,188.47"/>
<path id=":R3a8mpjaH2:" d="M742.6,393.92c-7.51,0-13.59-6.09-13.59-13.59s6.09-13.59,13.59-13.59c7.51,0,13.59,6.09,13.59,13.59
	S750.11,393.92,742.6,393.92 M621.62,298.1l-62.85,62.85c-10.7,10.7-10.7,28.05,0,38.75c10.7,10.7,28.05,10.7,38.75,0l62.85-62.85
	l62.85,62.85c10.7,10.7,28.05,10.7,38.75,0c10.7-10.7,10.7-28.05,0-38.75l-62.85-62.85l0,0l62.85-62.85
	c10.7-10.7,10.7-28.05,0-38.75c-10.7-10.7-28.05-10.7-38.75,0l-62.85,62.85l-62.85-62.85c-10.7-10.7-28.05-10.7-38.75,0
	c-10.7,10.7-10.7,28.05,0,38.75L621.62,298.1L621.62,298.1L621.62,298.1z"/>
</svg>
